<?xml version="1.0" encoding="utf-8"?>
<!-- Generator: Adobe Illustrator 25.3.0, SVG Export Plug-In . SVG Version: 6.00 Build 0)  -->
<svg version="1.1" id="Background_1_" xmlns="http://www.w3.org/2000/svg" xmlns:xlink="http://www.w3.org/1999/xlink" x="0px"
	 y="0px" viewBox="0 0 878.4 521.3" style="enable-background:new 0 0 878.4 521.3;" xml:space="preserve">
<g>
	<g>
		<path d="M1228.6,267.6l-0.4,1.6l-0.4,1.5l-0.9,3c-1.2,4-5.3,6.2-9.3,5c-3.9-1.2-6.2-5.3-5.1-9.2l0-0.1l0.8-2.8l0.4-1.4l0.3-1.3
			l0.1-0.2c1-4,5.1-6.4,9.1-5.4S1229.7,263.6,1228.6,267.6L1228.6,267.6z"/>
		<path d="M1218.4,297.8c-1.5,3.8-3,7.5-4.6,11.3c-1.6,3.7-5.9,5.4-9.6,3.8c-3.7-1.6-5.4-5.8-3.8-9.5c1.5-3.6,3-7.2,4.4-10.9
			c1.4-3.8,5.7-5.7,9.5-4.2C1218,289.7,1219.9,294,1218.4,297.8L1218.4,297.8z"/>
		<path d="M1203,332l-5.7,10.8c-1.8,3.5-6.1,4.8-9.6,3c-3.4-1.8-4.8-6.1-3-9.5l0.1-0.2l5.4-10.4l0.1-0.2c1.8-3.5,6.1-4.9,9.7-3.1
			C1203.5,324.1,1204.9,328.5,1203,332L1203,332z"/>
		<path d="M1184.4,364.6c-2.2,3.4-4.4,6.8-6.7,10.2c-2.2,3.2-6.5,4-9.6,1.8c-3.1-2.1-3.9-6.4-1.8-9.6c2.2-3.2,4.3-6.5,6.4-9.8
			c2-3.3,6.3-4.3,9.6-2.2C1185.5,357,1186.5,361.3,1184.4,364.6L1184.4,364.6z"/>
		<path d="M1162.5,395.2c-2.5,3.2-5.1,6.3-7.8,9.4c-2.4,2.8-6.7,3.1-9.5,0.7c-2.8-2.4-3.1-6.6-0.8-9.5c2.5-3,5-6,7.4-9.1
			c2.3-3,6.6-3.5,9.5-1.2S1164.9,392.2,1162.5,395.2L1162.5,395.2z"/>
		<path d="M1137.4,423.3c-2.9,2.9-5.8,5.7-8.8,8.4c-2.7,2.4-6.8,2.3-9.3-0.4c-2.4-2.7-2.3-6.8,0.4-9.2c2.8-2.7,5.6-5.4,8.4-8.2
			c2.6-2.6,6.8-2.6,9.4-0.1C1140,416.4,1140.1,420.6,1137.4,423.3L1137.4,423.3z"/>
		<path d="M1109.1,448.1c-3.2,2.5-6.5,4.9-9.9,7.2c-2.9,2-6.9,1.3-8.9-1.6c-2-2.9-1.3-6.8,1.5-8.8c3.2-2.3,6.3-4.6,9.3-7
			c2.8-2.2,6.8-1.7,9,1.1C1112.4,441.8,1111.9,445.9,1109.1,448.1L1109.1,448.1z"/>
		<path d="M1077.7,469c-3.5,2-7.1,4-10.7,5.8c-3,1.6-6.8,0.4-8.3-2.7c-1.6-3-0.4-6.7,2.6-8.3c3.4-1.8,6.8-3.7,10.2-5.7
			c3-1.7,6.8-0.7,8.5,2.2C1081.8,463.4,1080.8,467.2,1077.7,469L1077.7,469z"/>
		<path d="M1043.8,485.5c-3.8,1.5-7.6,3-11.4,4.3c-3.1,1.1-6.6-0.5-7.7-3.7c-1.1-3.1,0.5-6.5,3.6-7.6c3.7-1.3,7.3-2.7,10.9-4.2
			c3.1-1.3,6.6,0.2,7.9,3.3C1048.5,480.6,1047,484.2,1043.8,485.5L1043.8,485.5z"/>
		<path d="M1008,497.1c-4,1-8,1.8-12.1,2.6c-3.2,0.6-6.2-1.6-6.7-4.7c-0.6-3.1,1.5-6.1,4.7-6.7c3.8-0.7,7.5-1.5,11.3-2.5
			c3.1-0.8,6.4,1.1,7.2,4.2C1013.1,493.1,1011.2,496.3,1008,497.1L1008,497.1z"/>
		<path d="M970,501.8c-4.2-0.1-8.4-0.5-12.6-1.1c-3.1-0.5-5.2-3.4-4.7-6.4c0.5-3.1,3.3-5.1,6.4-4.7l0,0c3.7,0.5,7.4,0.8,11.2,0.9
			c3.1,0,5.7,2.6,5.6,5.8C975.8,499.3,973.2,501.8,970,501.8L970,501.8z"/>
		<path d="M932,492c-3.8-2.1-7.3-4.6-10.6-7.5c-2.3-2-2.6-5.4-0.6-7.7c1.9-2.3,5.4-2.6,7.7-0.6c2.8,2.3,5.8,4.4,9,6.2
			c2.7,1.5,3.6,4.8,2.2,7.5C938.1,492.6,934.7,493.5,932,492L932,492L932,492z"/>
		<path d="M904.6,463.9c-2.1-3.7-3.9-7.5-5.5-11.3c-1.1-2.7,0.2-5.8,2.9-6.9c2.7-1.1,5.7,0.2,6.9,2.8c1.5,3.5,3.1,6.9,5,10.1
			c1.5,2.5,0.6,5.8-1.9,7.3C909.3,467.4,906.1,466.5,904.6,463.9L904.6,463.9z"/>
		<path d="M891.7,427.7c-0.8-4-1.5-8.1-2-12.1c-0.4-2.8,1.6-5.3,4.4-5.7c2.8-0.4,5.3,1.6,5.7,4.3c0.6,3.8,1.2,7.7,2,11.4
			c0.6,2.8-1.2,5.5-4,6.1C895,432.3,892.3,430.6,891.7,427.7L891.7,427.7z"/>
		<path d="M887.7,390.2c-0.1-4.1-0.1-8.1-0.1-12.2c0-2.7,2.3-4.9,5-4.8c2.7,0,4.8,2.2,4.8,4.9c0,3.9,0,7.8,0.2,11.8
			c0.1,2.7-2,5-4.8,5.1C890.1,395.2,887.8,393,887.7,390.2L887.7,390.2z"/>
		<path d="M889,352.9l1.2-12c0.3-2.6,2.6-4.5,5.2-4.2c2.6,0.3,4.5,2.5,4.2,5.1l0,0.1l-1.1,11.8l0,0.1c-0.2,2.6-2.6,4.6-5.2,4.3
			C890.7,357.9,888.7,355.5,889,352.9L889,352.9z"/>
		<path d="M893.7,315.9l2.2-11.9c0.5-2.5,2.8-4.1,5.3-3.6c2.4,0.5,4.1,2.8,3.6,5.2l0,0.1l-2,11.7l0,0.1c-0.4,2.5-2.8,4.2-5.3,3.7
			C894.9,320.8,893.3,318.5,893.7,315.9L893.7,315.9z"/>
		<path d="M892.6,284.7l-6.7-9.8l-0.1-0.1c-1.4-2-0.8-4.7,1.1-6.1c2-1.4,4.7-0.9,6,1.1l6.9,9.9c1.4,2,0.9,4.8-1.1,6.2
			c-2,1.4-4.8,0.9-6.2-1.1l0,0L892.6,284.7z"/>
		<path d="M871.1,255.1l-7.4-9.3l-0.1-0.1c-1.4-1.8-1.2-4.4,0.7-5.9c1.8-1.4,4.4-1.2,5.9,0.6l7.6,9.3c1.5,1.8,1.2,4.5-0.6,6
			c-1.8,1.5-4.5,1.2-6-0.6L871.1,255.1L871.1,255.1z"/>
		<path d="M847.6,227l-8-8.8l-0.1-0.1c-1.5-1.6-1.4-4.2,0.3-5.7c1.6-1.5,4.2-1.4,5.7,0.2l8.2,8.8c1.5,1.6,1.4,4.2-0.2,5.8
			C851.8,228.9,849.3,228.8,847.6,227L847.6,227L847.6,227z"/>
		<path d="M822.4,200.6l-8.6-8.2l-0.1-0.1c-1.5-1.5-1.6-3.9-0.1-5.5c1.5-1.5,3.9-1.6,5.4-0.1l8.8,8.3c1.6,1.5,1.6,4,0.2,5.5
			C826.5,202.1,824,202.1,822.4,200.6L822.4,200.6L822.4,200.6z"/>
		<path d="M795.4,175.7l-9.1-7.7l-0.1-0.1c-1.6-1.3-1.8-3.6-0.4-5.2c1.3-1.5,3.6-1.7,5.2-0.5l9.3,7.7c1.6,1.3,1.8,3.7,0.5,5.3
			C799.5,176.9,797.1,177.1,795.4,175.7L795.4,175.7L795.4,175.7z"/>
		<path d="M766.9,152.8l-9.6-7l-0.1,0c-1.6-1.2-1.9-3.4-0.8-4.9c1.1-1.6,3.3-1.9,4.9-0.8l9.8,7c1.6,1.2,2,3.4,0.8,5
			S768.6,154,766.9,152.8L766.9,152.8L766.9,152.8z"/>
		<path d="M736.9,131.8l-10-6.4l-0.1,0c-1.6-1-2-3.1-1-4.6c1-1.6,3-2,4.6-1.1l10.2,6.3c1.6,1,2.1,3.1,1.1,4.7
			C740.7,132.3,738.6,132.8,736.9,131.8L736.9,131.8L736.9,131.8z"/>
		<path d="M705.5,112.9l-10.5-5.6l-0.1,0c-1.5-0.8-2.1-2.8-1.3-4.3c0.8-1.5,2.7-2.1,4.3-1.3l10.7,5.6c1.6,0.8,2.2,2.8,1.4,4.4
			C709.1,113.2,707.2,113.8,705.5,112.9L705.5,112.9L705.5,112.9z"/>
		<path d="M672.8,96.5l-10.9-4.8l-0.1,0c-1.5-0.7-2.2-2.5-1.5-4c0.7-1.5,2.4-2.2,3.9-1.5l11,4.8c1.6,0.7,2.3,2.5,1.6,4
			C676.3,96.5,674.4,97.2,672.8,96.5L672.8,96.5L672.8,96.5z"/>
		<path d="M638.9,82.5l-11.2-4l-0.1,0c-1.5-0.5-2.3-2.1-1.7-3.6c0.5-1.5,2.1-2.2,3.6-1.7l11.4,3.9c1.5,0.5,2.3,2.2,1.8,3.7
			C642.2,82.2,640.5,83.1,638.9,82.5L638.9,82.5L638.9,82.5z"/>
		<path d="M604.1,71.2l-11.5-3.1l-0.1,0c-1.4-0.4-2.3-1.8-1.9-3.3c0.4-1.4,1.8-2.3,3.3-1.9l11.6,3c1.5,0.4,2.3,1.9,2,3.3
			C607.1,70.7,605.6,71.6,604.1,71.2L604.1,71.2L604.1,71.2z"/>
		<path d="M568.4,62.7l-11.7-2.2l-0.1,0c-1.4-0.3-2.3-1.6-2-2.9c0.3-1.4,1.5-2.2,2.9-2l11.8,2.1c1.4,0.2,2.3,1.6,2.1,3
			C571.2,62,569.9,62.9,568.4,62.7L568.4,62.7L568.4,62.7z"/>
		<path d="M532.2,56.9l-11.8-1.3l-0.1,0c-1.3-0.1-2.2-1.3-2.1-2.6c0.1-1.3,1.3-2.2,2.6-2.1l12,1.2c1.3,0.1,2.3,1.3,2.1,2.6
			C534.8,56.1,533.6,57,532.2,56.9L532.2,56.9L532.2,56.9z"/>
		<path d="M495.6,53.9l-11.9-0.4l-0.1,0c-1.2,0-2.1-1-2.1-2.2c0-1.2,1-2.1,2.2-2.1l12,0.3c1.2,0,2.2,1,2.2,2.3
			C497.9,53,496.9,53.9,495.6,53.9L495.6,53.9L495.6,53.9z"/>
		<path d="M458.9,53.6L447,54.1l0,0c-1.1,0-2-0.8-2.1-1.9c0-1.1,0.8-2,1.9-2.1l12-0.6c1.1-0.1,2.1,0.8,2.2,2
			C461,52.6,460.1,53.6,458.9,53.6L458.9,53.6L458.9,53.6z"/>
		<path d="M422.3,55.9l-11.8,1.3l0,0c-1,0.1-1.9-0.6-2-1.6c-0.1-1,0.6-1.9,1.6-2l11.9-1.4c1-0.1,2,0.6,2.1,1.7
			C424.1,54.9,423.4,55.8,422.3,55.9L422.3,55.9L422.3,55.9z"/>
		<path d="M385.8,60.7l-11.7,2l0,0c-0.9,0.2-1.8-0.4-1.9-1.4c-0.2-0.9,0.4-1.8,1.3-1.9l11.8-2.2c0.9-0.2,1.8,0.4,2,1.4
			C387.4,59.6,386.8,60.5,385.8,60.7L385.8,60.7L385.8,60.7z"/>
		<path d="M349.7,67.7l-11.6,2.7l0,0c-0.8,0.2-1.6-0.3-1.8-1.1c-0.2-0.8,0.3-1.6,1.1-1.8l11.6-2.9c0.8-0.2,1.7,0.3,1.9,1.1
			S350.6,67.5,349.7,67.7L349.7,67.7L349.7,67.7z"/>
		<path d="M314.1,76.9l-11.4,3.4l0,0c-0.7,0.2-1.4-0.2-1.6-0.9c-0.2-0.7,0.2-1.4,0.9-1.6l11.5-3.5c0.7-0.2,1.5,0.2,1.7,0.9
			C315.3,75.9,314.9,76.6,314.1,76.9L314.1,76.9L314.1,76.9z"/>
		<path d="M279,87.9l-11.3,4l0,0c-0.6,0.2-1.3-0.1-1.5-0.7c-0.2-0.6,0.1-1.3,0.7-1.5l11.3-4.1c0.6-0.2,1.3,0.1,1.5,0.7
			S279.7,87.7,279,87.9L279,87.9L279,87.9z"/>
		<path d="M244.5,100.7l-11.1,4.5l0,0c-0.5,0.2-1.1,0-1.3-0.5c-0.2-0.5,0-1.1,0.5-1.3l11.1-4.6c0.5-0.2,1.1,0,1.4,0.6
			C245.3,99.9,245,100.5,244.5,100.7L244.5,100.7L244.5,100.7z"/>
		<path d="M210.6,115.1l-10.9,5l0,0c-0.4,0.2-0.9,0-1.1-0.4c-0.2-0.4,0-0.9,0.4-1.1l10.8-5.1c0.4-0.2,1,0,1.2,0.4
			C211.2,114.3,211,114.9,210.6,115.1L210.6,115.1L210.6,115.1z"/>
		<path d="M177.3,130.9l-10.7,5.4l0,0c-0.3,0.2-0.7,0-0.9-0.3c-0.2-0.3,0-0.7,0.3-0.9l10.6-5.5c0.3-0.2,0.8,0,0.9,0.3
			C177.8,130.2,177.6,130.7,177.3,130.9L177.3,130.9L177.3,130.9z"/>
		<path d="M144.6,147.9l-10.5,5.8l0,0c-0.2,0.1-0.5,0-0.7-0.2c-0.1-0.2,0-0.5,0.2-0.6l10.4-5.9c0.3-0.1,0.6-0.1,0.7,0.2
			C145,147.4,144.9,147.8,144.6,147.9L144.6,147.9L144.6,147.9z"/>
		<path d="M112.6,166.2l-10.3,6.1c-0.1,0.1-0.3,0-0.4-0.1c-0.1-0.1,0-0.3,0.1-0.4l10.2-6.2c0.2-0.1,0.4-0.1,0.5,0.1
			C112.8,165.8,112.8,166.1,112.6,166.2L112.6,166.2z"/>
		<path d="M81.2,185.4l-10.1,6.5c-0.1,0-0.2,0-0.2,0c0-0.1,0-0.2,0-0.2l10-6.6c0.1-0.1,0.2,0,0.3,0.1
			C81.3,185.3,81.3,185.4,81.2,185.4L81.2,185.4z"/>
		<path d="M50.3,205.7l-5,3.4L50.3,205.7C50.3,205.7,50.3,205.7,50.3,205.7C50.3,205.7,50.3,205.7,50.3,205.7L50.3,205.7z"/>
	</g>
</g>
</svg>
